<?xml version="1.0" standalone="no"?>
<!DOCTYPE svg PUBLIC "-//W3C//DTD SVG 20010904//EN"
 "http://www.w3.org/TR/2001/REC-SVG-20010904/DTD/svg10.dtd">
<svg version="1.0" xmlns="http://www.w3.org/2000/svg"
 width="188.000000pt" height="188.000000pt" viewBox="0 0 188.000000 188.000000"
 preserveAspectRatio="xMidYMid meet">
<metadata>
Created by potrace 1.14, written by Peter Selinger 2001-2017
</metadata>
<g transform="translate(0.000000,188.000000) scale(0.100000,-0.100000)"
fill="#000000" stroke="none">
<path d="M825 1645 c-79 -16 -78 -16 -200 -75 -76 -37 -104 -58 -180 -135 -99
-100 -147 -178 -187 -306 -33 -106 -33 -282 0 -389 62 -199 199 -360 387 -453
293 -146 672 -69 880 179 28 32 53 61 56 64 17 13 91 172 105 225 23 85 26
234 8 325 -15 73 -79 224 -107 251 -7 8 -18 22 -23 32 -21 37 -120 129 -184
172 -160 106 -368 147 -555 110z"/>
</g>
</svg>
